<?xml version="1.0" encoding="UTF-8" standalone="no"?>
<svg
   class="canvas"
   viewBox="0 0 1920 1080"
   preserveAspectRatio="xMaxYMid slice"
   version="1.1"
   id="svg55"
   sodipodi:docname="random.svg"
   inkscape:version="1.1.1 (3bf5ae0d25, 2021-09-20)"
   xmlns:inkscape="http://www.inkscape.org/namespaces/inkscape"
   xmlns:sodipodi="http://sodipodi.sourceforge.net/DTD/sodipodi-0.dtd"
   xmlns="http://www.w3.org/2000/svg"
   xmlns:svg="http://www.w3.org/2000/svg">
  <sodipodi:namedview
     id="namedview57"
     pagecolor="#505050"
     bordercolor="#ffffff"
     borderopacity="1"
     inkscape:pageshadow="0"
     inkscape:pageopacity="0"
     inkscape:pagecheckerboard="1"
     showgrid="false"
     inkscape:snap-page="true"
     inkscape:zoom="0.24269967"
     inkscape:cx="339.92629"
     inkscape:cy="434.69363"
     inkscape:window-width="1920"
     inkscape:window-height="1011"
     inkscape:window-x="-9"
     inkscape:window-y="29"
     inkscape:window-maximized="1"
     inkscape:current-layer="svg55" />
  <rect
     width="1920"
     height="865.22388"
     fill="#193f0d"
     id="rect2"
     x="0"
     y="461.48148"
     style="stroke-width:0.89506" />
  <defs
     id="defs39">
    <linearGradient
       x1="891.57007"
       y1="-620.24781"
       x2="0"
       y2="1162.8923"
       id="SvgjsLinearGradient1196"
       gradientTransform="matrix(1.0767522,0,0,0.74402752,0,461.48144)"
       gradientUnits="userSpaceOnUse">
      <stop
         stop-color="#288a4b"
         offset="0"
         id="stop4" />
      <stop
         stop-color="#060f14"
         offset="0.1"
         id="stop6" />
    </linearGradient>
    <linearGradient
       x1="848.48038"
       y1="-475.01148"
       x2="0"
       y2="1221.9493"
       id="SvgjsLinearGradient1197"
       gradientTransform="matrix(1.1314345,0,0,0.70806857,0,461.48144)"
       gradientUnits="userSpaceOnUse">
      <stop
         stop-color="#2d8a28"
         offset="0"
         id="stop9" />
      <stop
         stop-color="#061413"
         offset="0.22857142857142856"
         id="stop11" />
    </linearGradient>
    <linearGradient
       x1="796.32156"
       y1="-290.6565"
       x2="0"
       y2="1301.9866"
       id="SvgjsLinearGradient1198"
       gradientTransform="matrix(1.2055432,0,0,0.66454131,0,461.48144)"
       gradientUnits="userSpaceOnUse">
      <stop
         stop-color="#288a37"
         offset="0"
         id="stop14" />
      <stop
         stop-color="#061214"
         offset="0.3571428571428571"
         id="stop16" />
    </linearGradient>
    <linearGradient
       x1="772.39835"
       y1="-202.48414"
       x2="0"
       y2="1342.3126"
       id="SvgjsLinearGradient1199"
       gradientTransform="matrix(1.242882,0,0,0.64457706,0,461.48144)"
       gradientUnits="userSpaceOnUse">
      <stop
         stop-color="#c0f2d1"
         offset="0"
         id="stop19" />
      <stop
         stop-color="#42a3d7"
         offset="0.48571428571428565"
         id="stop21" />
    </linearGradient>
    <linearGradient
       x1="717.63196"
       y1="9.4877877"
       x2="0"
       y2="1444.7517"
       id="SvgjsLinearGradient1200"
       gradientTransform="matrix(1.3377331,0,0,0.59887376,0,461.48144)"
       gradientUnits="userSpaceOnUse">
      <stop
         stop-color="#c0f2c7"
         offset="0"
         id="stop24" />
      <stop
         stop-color="#42c0d7"
         offset="0.6142857142857142"
         id="stop26" />
    </linearGradient>
    <linearGradient
       x1="694.33427"
       y1="104.56037"
       x2="0"
       y2="1493.2289"
       id="SvgjsLinearGradient1201"
       gradientTransform="matrix(1.3826194,0,0,0.57943151,0,461.48144)"
       gradientUnits="userSpaceOnUse">
      <stop
         stop-color="#c0f2db"
         offset="0"
         id="stop29" />
      <stop
         stop-color="#4285d7"
         offset="0.7428571428571429"
         id="stop31" />
    </linearGradient>
    <linearGradient
       x1="654.12177"
       y1="276.78243"
       x2="0"
       y2="1585.026"
       id="SvgjsLinearGradient1202"
       gradientTransform="matrix(1.4676166,0,0,0.54587364,0,461.48144)"
       gradientUnits="userSpaceOnUse">
      <stop
         stop-color="#c0f2db"
         offset="0"
         id="stop34" />
      <stop
         stop-color="#4285d7"
         offset="0.8714285714285713"
         id="stop36" />
    </linearGradient>
  </defs>
  <path
     d="m 0,0 c 59.970462,19.483741 240.57354,93.840717 359.82277,116.90243 119.24924,23.06171 220.86453,-8.58983 355.67264,21.46785 134.80811,30.05769 316.85189,129.49598 453.17599,158.87827 136.3242,29.38229 239.5473,-5.1451 364.7687,17.41547 125.2214,22.56056 322.1333,98.28994 386.5599,117.94793 V 1326.7053 H 0 Z"
     fill="url(&quot;#SvgjsLinearGradient1196&quot;)"
     id="path41"
     style="fill:url(#SvgjsLinearGradient1196);stroke-width:0.89506" />
  <path
     d="m 0,125.14074 c 52.968396,11.5918 230.09182,54.37323 317.81038,69.55076 87.71856,15.17753 119.68873,-1.24057 208.50097,21.5144 88.81225,22.75497 236.03951,86.7651 324.3725,115.01541 88.33298,28.25031 120.47752,40.08608 205.62545,54.48645 85.1479,14.40036 202.8608,6.84023 305.262,31.91576 102.4012,25.07551 216.0737,93.27504 309.1452,118.53737 93.0714,25.26232 207.7362,27.53046 249.2835,33.03656 V 1326.7053 H 0 Z"
     fill="url(&quot;#SvgjsLinearGradient1197&quot;)"
     id="path43"
     style="fill:url(#SvgjsLinearGradient1197);stroke-width:0.89506" />
  <path
     d="m 0,268.32818 c 59.815955,17.91038 228.87435,75.08779 358.89573,107.46223 130.02138,32.37443 289.91799,54.64106 421.23254,86.78438 131.31456,32.14332 244.86453,77.43219 366.65483,106.07554 121.7902,28.64335 235.2171,39.92137 364.0866,65.78459 128.8695,25.86322 340.9419,74.49561 409.1303,89.39473 V 1326.7053 H 0 Z"
     fill="url(&quot;#SvgjsLinearGradient1198&quot;)"
     id="path45"
     style="fill:url(#SvgjsLinearGradient1198);stroke-width:0.89506" />
  <path
     d="m 0,330.96481 c 56.454153,13.50385 204.10429,47.54687 338.72492,81.02309 134.62062,33.47621 334.69296,80.90606 468.99882,119.83421 134.30586,38.92814 223.08426,83.70904 336.83636,113.73467 113.752,30.02562 216.436,41.02669 345.676,66.41906 129.24,25.39238 358.1366,71.61267 429.7639,85.9352 V 1326.7053 H 0 Z"
     fill="url(&quot;#SvgjsLinearGradient1199&quot;)"
     id="path47"
     style="fill:url(#SvgjsLinearGradient1199);stroke-width:0.89506" />
  <path
     d="m 0,467.16343 c 81.423089,22.33391 322.54842,91.71045 488.53853,134.00347 165.99012,42.29302 342.05593,87.95706 507.40215,119.75464 165.34622,31.79759 330.66532,33.59205 484.67522,71.03087 154.0099,37.43881 366.1534,128.00167 439.3841,153.60198 V 1326.7053 H 0 Z"
     fill="url(&quot;#SvgjsLinearGradient1200&quot;)"
     id="path49"
     style="fill:url(#SvgjsLinearGradient1200);stroke-width:0.89506" />
  <path
     d="m 0,522.06701 c 69.48793,23.09282 289.87423,110.04747 416.92758,138.55693 127.05335,28.50947 212.96528,14.62246 345.39252,32.49985 132.42725,17.87739 312.6852,34.04028 449.171,74.76452 136.4857,40.72424 251.6587,128.91186 369.7435,169.58098 118.0848,40.669 282.3045,62.0279 338.7654,74.43351 v 314.8025 H 0 Z"
     fill="url(&quot;#SvgjsLinearGradient1201&quot;)"
     id="path51"
     style="fill:url(#SvgjsLinearGradient1201);stroke-width:0.89506" />
  <path
     d="m 0,612.56967 c 52.702896,13.61828 214.17022,59.74591 316.21738,81.70963 102.04715,21.96371 187.96892,17.52592 296.06557,50.07266 108.09665,32.54675 244.10873,114.59476 352.51433,145.2078 108.40562,30.61304 191.94112,9.16543 297.91922,38.47044 105.9782,29.30499 228.4023,106.3897 337.9496,137.3596 109.5472,30.9701 266.1116,40.3836 319.3339,48.4604 v 212.8551 H 0 Z"
     fill="url(&quot;#SvgjsLinearGradient1202&quot;)"
     id="path53"
     style="fill:url(#SvgjsLinearGradient1202);stroke-width:0.89506" />
</svg>
