<?xml version="1.0" encoding="UTF-8" standalone="no"?>
<svg
   class="canvas"
   viewBox="0 0 1920 3000"
   preserveAspectRatio="xMaxYMid slice"
   version="1.1"
   id="svg55"
   sodipodi:docname="back-mobile.svg"
   inkscape:version="1.1.1 (3bf5ae0d25, 2021-09-20)"
   width="1920"
   height="3000"
   xmlns:inkscape="http://www.inkscape.org/namespaces/inkscape"
   xmlns:sodipodi="http://sodipodi.sourceforge.net/DTD/sodipodi-0.dtd"
   xmlns="http://www.w3.org/2000/svg"
   xmlns:svg="http://www.w3.org/2000/svg">
  <sodipodi:namedview
     id="namedview57"
     pagecolor="#505050"
     bordercolor="#ffffff"
     borderopacity="1"
     inkscape:pageshadow="0"
     inkscape:pageopacity="0"
     inkscape:pagecheckerboard="1"
     showgrid="false"
     inkscape:snap-page="true"
     inkscape:zoom="0.12134984"
     inkscape:cx="-1808.8199"
     inkscape:cy="1429.7506"
     inkscape:window-width="1920"
     inkscape:window-height="1011"
     inkscape:window-x="-9"
     inkscape:window-y="29"
     inkscape:window-maximized="1"
     inkscape:current-layer="svg55" />
  <rect
     width="2431.6135"
     height="1956.4794"
     fill="#193f0d"
     id="rect2"
     x="-6.9189455e-06"
     y="1043.5208"
     style="stroke-width:1.51469" />
  <defs
     id="defs39">
    <linearGradient
       x1="891.57007"
       y1="-620.2478"
       x2="0"
       y2="1162.8923"
       id="SvgjsLinearGradient1196"
       gradientTransform="matrix(1.3636693,0,0,1.6824253,0,1043.5207)"
       gradientUnits="userSpaceOnUse">
      <stop
         stop-color="#288a4b"
         offset="0"
         id="stop4" />
      <stop
         stop-color="#060f14"
         offset="0.1"
         id="stop6" />
    </linearGradient>
    <linearGradient
       x1="848.48041"
       y1="-475.01147"
       x2="0"
       y2="1221.9493"
       id="SvgjsLinearGradient1197"
       gradientTransform="matrix(1.4329225,0,0,1.6011134,0,1043.5207)"
       gradientUnits="userSpaceOnUse">
      <stop
         stop-color="#2d8a28"
         offset="0"
         id="stop9" />
      <stop
         stop-color="#061413"
         offset="0.22857142857142856"
         id="stop11" />
    </linearGradient>
    <linearGradient
       x1="796.32153"
       y1="-290.65649"
       x2="0"
       y2="1301.9866"
       id="SvgjsLinearGradient1198"
       gradientTransform="matrix(1.5267786,0,0,1.5026877,0,1043.5207)"
       gradientUnits="userSpaceOnUse">
      <stop
         stop-color="#288a37"
         offset="0"
         id="stop14" />
      <stop
         stop-color="#061214"
         offset="0.3571428571428571"
         id="stop16" />
    </linearGradient>
    <linearGradient
       x1="772.39838"
       y1="-202.48415"
       x2="0"
       y2="1342.3126"
       id="SvgjsLinearGradient1199"
       gradientTransform="matrix(1.5740669,0,0,1.4575439,0,1043.5207)"
       gradientUnits="userSpaceOnUse">
      <stop
         stop-color="#c0f2d1"
         offset="0"
         id="stop19" />
      <stop
         stop-color="#42a3d7"
         offset="0.48571428571428565"
         id="stop21" />
    </linearGradient>
    <linearGradient
       x1="717.63196"
       y1="9.4877872"
       x2="0"
       y2="1444.7517"
       id="SvgjsLinearGradient1200"
       gradientTransform="matrix(1.6941926,0,0,1.3541977,0,1043.5207)"
       gradientUnits="userSpaceOnUse">
      <stop
         stop-color="#c0f2c7"
         offset="0"
         id="stop24" />
      <stop
         stop-color="#42c0d7"
         offset="0.6142857142857142"
         id="stop26" />
    </linearGradient>
    <linearGradient
       x1="694.33429"
       y1="104.56037"
       x2="0"
       y2="1493.2289"
       id="SvgjsLinearGradient1201"
       gradientTransform="matrix(1.7510395,0,0,1.310234,0,1043.5207)"
       gradientUnits="userSpaceOnUse">
      <stop
         stop-color="#c0f2db"
         offset="0"
         id="stop29" />
      <stop
         stop-color="#4285d7"
         offset="0.7428571428571429"
         id="stop31" />
    </linearGradient>
    <linearGradient
       x1="654.12177"
       y1="276.78244"
       x2="0"
       y2="1585.026"
       id="SvgjsLinearGradient1202"
       gradientTransform="matrix(1.8586855,0,0,1.2343516,0,1043.5207)"
       gradientUnits="userSpaceOnUse">
      <stop
         stop-color="#c0f2db"
         offset="0"
         id="stop34" />
      <stop
         stop-color="#4285d7"
         offset="0.8714285714285713"
         id="stop36" />
    </linearGradient>
  </defs>
  <path
     d="m 0,1e-4 c 75.95051,44.057426 304.67804,212.19644 455.70306,264.34452 151.02503,52.14807 279.71727,-19.42368 450.44707,48.54397 170.72977,67.96767 401.28187,292.82156 573.93167,359.26199 172.6499,66.44042 303.3783,-11.63432 461.9669,39.38057 158.5886,51.01485 407.9707,222.2572 489.5647,266.70864 V 3000 H 0 Z"
     fill="url(&quot;#SvgjsLinearGradient1196&quot;)"
     id="path41"
     style="fill:url(#SvgjsLinearGradient1196);stroke-width:1.51469" />
  <path
     d="m 0,282.97342 c 67.08264,26.21184 291.40331,122.95096 402.49582,157.271 111.09252,34.32004 151.58163,-2.80523 264.05925,48.64923 112.47764,51.45447 298.93586,196.19676 410.80653,260.07752 111.8707,63.88074 152.5806,90.64426 260.4175,123.20696 107.8369,32.56268 256.9162,15.4674 386.6037,72.16922 129.6876,56.70175 273.6499,210.91725 391.5217,268.04155 117.8717,57.1241 263.0907,62.2529 315.7089,74.7036 V 3000 H 0 Z"
     fill="url(&quot;#SvgjsLinearGradient1197&quot;)"
     id="path43"
     style="fill:url(#SvgjsLinearGradient1197);stroke-width:1.51469" />
  <path
     d="m 0,606.75466 c 75.75483,40.49968 289.86143,169.79156 454.529,242.99796 164.66757,73.20637 367.17108,123.55658 533.4764,196.24038 166.3053,72.6838 310.1124,175.0928 464.3556,239.8623 154.2431,64.7695 297.8943,90.2718 461.1031,148.7548 163.2087,58.4829 431.7911,168.4524 518.1493,202.143 V 3000 H 0 Z"
     fill="url(&quot;#SvgjsLinearGradient1198&quot;)"
     id="path45"
     style="fill:url(#SvgjsLinearGradient1198);stroke-width:1.51469" />
  <path
     d="m 0,748.39115 c 71.49723,30.53545 258.491,107.51491 428.98336,183.2127 170.49235,75.69775 423.87703,182.94805 593.97074,270.97405 170.0937,88.0258 282.5285,189.2861 426.5916,257.1814 144.0629,67.8951 274.1087,92.7711 437.7866,150.1894 163.678,57.4183 453.5676,161.9335 544.2811,194.3202 V 3000 H 0 Z"
     fill="url(&quot;#SvgjsLinearGradient1199&quot;)"
     id="path47"
     style="fill:url(#SvgjsLinearGradient1199);stroke-width:1.51469" />
  <path
     d="m 0,1056.369 c 103.11952,50.5023 408.49639,207.3794 618.71711,303.014 210.22073,95.6348 433.20199,198.8922 642.60719,270.7941 209.4053,71.902 418.7762,75.9598 613.8244,160.6179 195.0482,84.6581 463.7206,289.4426 556.4647,347.331 V 3000 H 0 Z"
     fill="url(&quot;#SvgjsLinearGradient1200&quot;)"
     id="path49"
     style="fill:url(#SvgjsLinearGradient1200);stroke-width:1.51469" />
  <path
     d="m 0,1180.5192 c 88.00405,52.2184 367.11566,248.8438 528.02432,313.3106 160.90866,64.4668 269.71314,33.0648 437.42765,73.4899 167.71453,40.4251 396.00493,76.9732 568.85953,169.0606 172.8544,92.0873 318.717,291.5007 468.2673,383.4634 149.5503,91.9624 357.5288,140.26 429.0346,168.312 V 3000 H 0 Z"
     fill="url(&quot;#SvgjsLinearGradient1201&quot;)"
     id="path51"
     style="fill:url(#SvgjsLinearGradient1201);stroke-width:1.51469" />
  <path
     d="m 0,1385.1674 c 66.74639,30.7942 271.23916,135.1 400.47835,184.7652 129.23917,49.6652 238.05611,39.6303 374.95677,113.2264 136.90066,73.5959 309.15528,259.1263 446.44718,328.3497 137.2919,69.2235 243.0868,20.7252 377.3044,86.9909 134.2177,66.2657 289.2635,240.5728 428.0014,310.6031 138.7377,70.0309 337.0211,91.3171 404.4253,109.5806 V 3000 H 0 Z"
     fill="url(&quot;#SvgjsLinearGradient1202&quot;)"
     id="path53"
     style="fill:url(#SvgjsLinearGradient1202);stroke-width:1.51469" />
</svg>
